<svg width="137" height="387" viewBox="0 0 137 387" fill="none" xmlns="http://www.w3.org/2000/svg">
<path d="M1.29785 83.8223C0.365633 82.676 0.325014 81.0312 0.794922 79.4189C1.26988 77.7897 2.29265 76.081 3.66992 74.6787C5.04811 73.2757 6.80897 72.1516 8.77637 71.7383C10.7574 71.3222 12.9172 71.6339 15.0469 73.0527C19.13 75.7712 21.8512 78.4915 24.416 81.1885C26.982 83.8867 29.3749 86.5416 32.835 89.2012C34.0604 90.1432 35.0417 90.7175 35.8125 91.0078C36.5873 91.2996 37.0863 91.2825 37.4033 91.1445C37.7089 91.0115 37.9594 90.7155 38.126 90.1777C38.2938 89.6356 38.3557 88.9046 38.3145 88.0176C38.1487 84.4532 36.3628 78.9783 34.7627 75.2793L33.5732 72.5088C27.5534 58.4379 20.5464 41.3311 17.5312 33.3184V33.3174C15.5787 28.1143 18.8905 23.0332 23.3535 21.0889C25.6028 20.109 28.189 19.8983 30.6113 20.8701C33.0386 21.844 35.236 23.9802 36.7568 27.5713L36.7578 27.5703C40.8007 37.0961 45.3662 48.5342 49.6719 58.21C50.6679 60.448 51.5772 61.9637 52.3672 62.8887C53.1805 63.841 53.7587 64.0453 54.1006 63.9932C54.4302 63.9427 54.8303 63.6042 55.1631 62.6875C55.4844 61.802 55.6828 60.5252 55.7119 58.9404C55.8295 52.4765 55.1729 18.8596 55.1729 10.5596C55.1731 4.28265 60.6027 0.793904 65.8721 0.516602C68.5216 0.377205 71.2035 1.03634 73.2344 2.60254C75.2803 4.18049 76.624 6.64915 76.624 10.0225C76.624 26.6662 77.0994 39.6461 77.5225 49.1514L77.6992 53.0127C77.8703 56.6117 78.4219 58.9478 79.1309 60.3506C79.8343 61.7423 80.634 62.1249 81.3262 62.0771C82.0821 62.0249 82.9431 61.4534 83.71 60.4443C84.4643 59.4517 85.063 58.1148 85.3184 56.7109V56.71C86.3961 50.7912 90.1572 25.0276 91.7764 15.3174C92.2096 12.7215 93.7951 10.8946 95.8613 9.82031C97.9159 8.75223 100.449 8.42311 102.849 8.78223C105.248 9.14139 107.562 10.1963 109.151 11.9561C110.754 13.7302 111.586 16.1855 111.061 19.248V19.249C107.831 38.0691 105.679 50.431 104.065 60.6426H104.066C103.784 62.4429 104.004 63.7466 104.452 64.6953C104.9 65.6436 105.597 66.2808 106.341 66.7119C107.089 67.1453 107.88 67.3672 108.491 67.4795C108.795 67.5353 109.051 67.5632 109.229 67.5771C109.278 67.5811 109.322 67.5829 109.358 67.585C109.359 67.5843 109.36 67.5837 109.361 67.583C109.445 67.524 109.581 67.4201 109.763 67.2529C110.127 66.9183 110.677 66.3298 111.379 65.3389C112.696 63.479 114.535 60.2109 116.664 54.5645L117.094 53.4033C120.356 44.4422 126.466 40.7518 131.09 42.0723C133.405 42.7335 135.216 44.6368 135.985 47.5508C136.751 50.4537 136.49 54.3608 134.718 59.127C131.245 68.48 123.844 88.4038 117.312 105.989C114.047 114.782 110.997 122.99 108.765 129C107.648 132.005 106.737 134.461 106.104 136.165C105.787 137.017 105.541 137.682 105.373 138.133C105.305 138.317 105.249 138.465 105.208 138.576V386.314L104.71 386.315L74.5166 386.408L44.3232 386.5L43.8223 386.502V138.799C42.5346 137.38 34.0093 127.864 28.5215 118.894L27.7656 117.678C19.8284 105.105 8.10279 92.1899 1.29785 83.8223Z" fill="#FFF7F4" stroke="black"/>
<path d="M115.413 354.425C115.413 360.006 110.885 364.53 105.298 364.53H43.9786C38.3918 364.53 33.8633 360.006 33.8633 354.425V245.817C33.8633 240.235 38.3918 235.711 43.9786 235.711H105.298C110.885 235.711 115.413 240.235 115.413 245.817V354.425Z" fill="#3A5677"/>
<path d="M83.6261 348.324C83.6261 353.578 79.3631 357.836 74.104 357.836H50.4938C45.2347 357.836 40.9717 353.578 40.9717 348.324V251.592C40.9717 246.338 45.2347 242.079 50.4938 242.079H74.104C79.3631 242.079 83.6261 246.338 83.6261 251.592V348.324Z" fill="#4B6C8C"/>
</svg>
